<svg 
 xmlns="http://www.w3.org/2000/svg"
 xmlns:xlink="http://www.w3.org/1999/xlink"
 width="400.5px" height="400.5px">
<path fill-rule="evenodd"  fill="rgb(0, 0, 0)"
 d="M40.000,0.000 L360.000,0.000 C382.091,0.000 400.000,17.909 400.000,40.000 L400.000,360.000 C400.000,382.091 382.091,400.000 360.000,400.000 L40.000,400.000 C17.909,400.000 0.000,382.091 0.000,360.000 L0.000,40.000 C0.000,17.909 17.909,0.000 40.000,0.000 Z"/>
<path fill-rule="evenodd"  fill="rgb(7, 160, 146)"
 d="M46.470,6.470 L331.556,6.470 C353.648,6.470 371.556,24.379 371.556,46.470 L371.556,331.556 C371.556,353.648 353.648,371.556 331.556,371.556 L46.470,371.556 C24.379,371.556 6.470,353.648 6.470,331.556 L6.470,46.470 C6.470,24.379 24.379,6.470 46.470,6.470 Z"/>
<path fill-rule="evenodd"  stroke="rgb(0, 0, 0)" stroke-width="1px" stroke-linecap="butt" stroke-linejoin="miter" fill="rgb(0, 0, 0)"
 d="M99.127,316.073 L156.168,316.073 L189.056,197.554 L222.073,316.073 L279.113,316.073 L320.609,127.829 L265.647,127.829 L245.734,233.072 L216.549,127.829 L161.499,127.829 L132.387,233.213 L112.496,127.829 L57.247,127.829 L99.127,316.073 Z"/>
<path fill-rule="evenodd"  fill="rgb(0, 0, 0)"
 d="M56.961,62.000 L320.815,62.000 L320.815,62.000 L320.815,101.447 L320.815,101.447 L56.961,101.447 L56.961,101.447 L56.961,62.000 L56.961,62.000 Z"/>
</svg>